<mxfile host="app.diagrams.net" modified="2020-09-05T16:16:56.735Z" agent="5.0 (Macintosh; Intel Mac OS X 10_15_6) AppleWebKit/537.36 (KHTML, like Gecko) Chrome/85.0.4183.83 Safari/537.36" etag="hbVNuhdn-2TcrNKZ_oXO" version="13.6.6" type="github">
  <diagram id="n0_Lte37OkuoK2T_A_e4" name="Page-1">
    <mxGraphModel dx="1666" dy="826" grid="1" gridSize="10" guides="1" tooltips="1" connect="1" arrows="1" fold="1" page="1" pageScale="1" pageWidth="1169" pageHeight="827" math="0" shadow="0">
      <root>
        <mxCell id="0" />
        <mxCell id="1" parent="0" />
        <mxCell id="APr9vIWkBJDwaBxnrOzC-1" value="&lt;b&gt;Google &lt;/b&gt;Cloud Platform" style="fillColor=#F6F6F6;strokeColor=none;shadow=0;gradientColor=none;fontSize=14;align=left;spacing=10;fontColor=#717171;9E9E9E;verticalAlign=top;spacingTop=-4;fontStyle=0;spacingLeft=40;html=1;" vertex="1" parent="1">
          <mxGeometry x="40" y="40" width="650" height="350" as="geometry" />
        </mxCell>
        <mxCell id="APr9vIWkBJDwaBxnrOzC-2" value="" style="shape=mxgraph.gcp2.google_cloud_platform;fillColor=#F6F6F6;strokeColor=none;shadow=0;gradientColor=none;" vertex="1" parent="APr9vIWkBJDwaBxnrOzC-1">
          <mxGeometry width="23" height="20" relative="1" as="geometry">
            <mxPoint x="20" y="10" as="offset" />
          </mxGeometry>
        </mxCell>
        <mxCell id="APr9vIWkBJDwaBxnrOzC-3" value="" style="strokeColor=#dddddd;shadow=1;strokeWidth=1;rounded=1;absoluteArcSize=1;arcSize=2;" vertex="1" parent="1">
          <mxGeometry x="80" y="520" width="170" height="60" as="geometry" />
        </mxCell>
        <mxCell id="APr9vIWkBJDwaBxnrOzC-4" value="&lt;font color=&quot;#000000&quot;&gt;ttcteam&lt;/font&gt;&lt;br&gt;Kubernetes Engine" style="dashed=0;connectable=0;html=1;fillColor=#5184F3;strokeColor=none;shape=mxgraph.gcp2.hexIcon;prIcon=container_engine;part=1;labelPosition=right;verticalLabelPosition=middle;align=left;verticalAlign=middle;spacingLeft=5;fontColor=#999999;fontSize=12;" vertex="1" parent="APr9vIWkBJDwaBxnrOzC-3">
          <mxGeometry y="0.5" width="44" height="39" relative="1" as="geometry">
            <mxPoint x="5" y="-19.5" as="offset" />
          </mxGeometry>
        </mxCell>
        <mxCell id="APr9vIWkBJDwaBxnrOzC-5" value="" style="strokeColor=#dddddd;shadow=1;strokeWidth=1;rounded=1;absoluteArcSize=1;arcSize=2;" vertex="1" parent="1">
          <mxGeometry x="330" y="570" width="150" height="60" as="geometry" />
        </mxCell>
        <mxCell id="APr9vIWkBJDwaBxnrOzC-6" value="&lt;font color=&quot;#000000&quot;&gt;ttc-team-03&lt;/font&gt;&lt;br&gt;Cloud SQL" style="dashed=0;connectable=0;html=1;fillColor=#5184F3;strokeColor=none;shape=mxgraph.gcp2.hexIcon;prIcon=cloud_sql;part=1;labelPosition=right;verticalLabelPosition=middle;align=left;verticalAlign=middle;spacingLeft=5;fontColor=#999999;fontSize=12;" vertex="1" parent="APr9vIWkBJDwaBxnrOzC-5">
          <mxGeometry y="0.5" width="44" height="39" relative="1" as="geometry">
            <mxPoint x="5" y="-19.5" as="offset" />
          </mxGeometry>
        </mxCell>
        <mxCell id="APr9vIWkBJDwaBxnrOzC-7" value="" style="strokeColor=#dddddd;shadow=1;strokeWidth=1;rounded=1;absoluteArcSize=1;arcSize=2;" vertex="1" parent="1">
          <mxGeometry x="140" y="650" width="180" height="60" as="geometry" />
        </mxCell>
        <mxCell id="APr9vIWkBJDwaBxnrOzC-8" value="&lt;font color=&quot;#000000&quot;&gt;ttc-team-03&lt;/font&gt;&lt;br&gt;Virtual Private Cloud" style="dashed=0;connectable=0;html=1;fillColor=#5184F3;strokeColor=none;shape=mxgraph.gcp2.hexIcon;prIcon=virtual_private_cloud;part=1;labelPosition=right;verticalLabelPosition=middle;align=left;verticalAlign=middle;spacingLeft=5;fontColor=#999999;fontSize=12;" vertex="1" parent="APr9vIWkBJDwaBxnrOzC-7">
          <mxGeometry y="0.5" width="44" height="39" relative="1" as="geometry">
            <mxPoint x="5" y="-19.5" as="offset" />
          </mxGeometry>
        </mxCell>
        <mxCell id="APr9vIWkBJDwaBxnrOzC-11" value="" style="strokeColor=#dddddd;shadow=1;strokeWidth=1;rounded=1;absoluteArcSize=1;arcSize=2;" vertex="1" parent="1">
          <mxGeometry x="670" y="620" width="160" height="60" as="geometry" />
        </mxCell>
        <mxCell id="APr9vIWkBJDwaBxnrOzC-12" value="&lt;font color=&quot;#000000&quot;&gt;team03.sk-ttc.com&lt;/font&gt;&lt;br&gt;Cloud  DNS" style="dashed=0;connectable=0;html=1;fillColor=#5184F3;strokeColor=none;shape=mxgraph.gcp2.hexIcon;prIcon=cloud_dns;part=1;labelPosition=right;verticalLabelPosition=middle;align=left;verticalAlign=middle;spacingLeft=5;fontColor=#999999;fontSize=12;" vertex="1" parent="APr9vIWkBJDwaBxnrOzC-11">
          <mxGeometry y="0.5" width="44" height="39" relative="1" as="geometry">
            <mxPoint x="5" y="-19.5" as="offset" />
          </mxGeometry>
        </mxCell>
        <mxCell id="APr9vIWkBJDwaBxnrOzC-13" value="" style="strokeColor=#dddddd;shadow=1;strokeWidth=1;rounded=1;absoluteArcSize=1;arcSize=2;" vertex="1" parent="1">
          <mxGeometry x="870" y="490" width="130" height="60" as="geometry" />
        </mxCell>
        <mxCell id="APr9vIWkBJDwaBxnrOzC-14" value="&lt;font color=&quot;#000000&quot;&gt;ttc-team-03&lt;/font&gt;&lt;br&gt;Cloud Build" style="dashed=0;connectable=0;html=1;fillColor=#5184F3;strokeColor=none;shape=mxgraph.gcp2.hexIcon;prIcon=container_builder;part=1;labelPosition=right;verticalLabelPosition=middle;align=left;verticalAlign=middle;spacingLeft=5;fontColor=#999999;fontSize=12;" vertex="1" parent="APr9vIWkBJDwaBxnrOzC-13">
          <mxGeometry y="0.5" width="44" height="39" relative="1" as="geometry">
            <mxPoint x="5" y="-19.5" as="offset" />
          </mxGeometry>
        </mxCell>
        <mxCell id="APr9vIWkBJDwaBxnrOzC-17" value="" style="strokeColor=#dddddd;shadow=1;strokeWidth=1;rounded=1;absoluteArcSize=1;arcSize=2;" vertex="1" parent="1">
          <mxGeometry x="410" y="680" width="210" height="60" as="geometry" />
        </mxCell>
        <mxCell id="APr9vIWkBJDwaBxnrOzC-18" value="&lt;font color=&quot;#000000&quot;&gt;ttc-team-03&lt;/font&gt;&lt;br&gt;Cloud Source Repositories" style="dashed=0;connectable=0;html=1;fillColor=#5184F3;strokeColor=none;shape=mxgraph.gcp2.hexIcon;prIcon=placeholder;part=1;labelPosition=right;verticalLabelPosition=middle;align=left;verticalAlign=middle;spacingLeft=5;fontColor=#999999;fontSize=12;" vertex="1" parent="APr9vIWkBJDwaBxnrOzC-17">
          <mxGeometry y="0.5" width="44" height="39" relative="1" as="geometry">
            <mxPoint x="5" y="-19.5" as="offset" />
          </mxGeometry>
        </mxCell>
        <mxCell id="APr9vIWkBJDwaBxnrOzC-21" value="" style="strokeColor=#dddddd;shadow=1;strokeWidth=1;rounded=1;absoluteArcSize=1;arcSize=2;" vertex="1" parent="1">
          <mxGeometry x="940" y="640" width="160" height="60" as="geometry" />
        </mxCell>
        <mxCell id="APr9vIWkBJDwaBxnrOzC-22" value="&lt;font color=&quot;#000000&quot;&gt;ttc-team-03&lt;/font&gt;&lt;br&gt;Container Registry" style="dashed=0;connectable=0;html=1;fillColor=#5184F3;strokeColor=none;shape=mxgraph.gcp2.hexIcon;prIcon=container_registry;part=1;labelPosition=right;verticalLabelPosition=middle;align=left;verticalAlign=middle;spacingLeft=5;fontColor=#999999;fontSize=12;" vertex="1" parent="APr9vIWkBJDwaBxnrOzC-21">
          <mxGeometry y="0.5" width="44" height="39" relative="1" as="geometry">
            <mxPoint x="5" y="-19.5" as="offset" />
          </mxGeometry>
        </mxCell>
      </root>
    </mxGraphModel>
  </diagram>
</mxfile>
